<?xml version="1.0" standalone="no"?>
<!DOCTYPE svg PUBLIC "-//W3C//DTD SVG 20010904//EN"
 "http://www.w3.org/TR/2001/REC-SVG-20010904/DTD/svg10.dtd">
<svg version="1.0" xmlns="http://www.w3.org/2000/svg"
 width="2160.000000pt" height="2160.000000pt" viewBox="0 0 2160.000000 2160.000000"
 preserveAspectRatio="xMidYMid meet">

<g transform="translate(0.000000,2160.000000) scale(0.100000,-0.100000)"
fill="#000000" stroke="none">
<path d="M0 10800 l0 -10800 10800 0 10800 0 0 10800 0 10800 -10800 0 -10800
0 0 -10800z m8647 5868 c92 -173 215 -425 288 -592 l39 -88 51 5 c27 3 138 17
245 31 454 59 840 85 1360 93 626 9 1210 -25 1810 -107 164 -23 190 -24 190
-10 0 34 374 796 409 833 7 7 285 -41 531 -93 888 -189 1762 -471 2596 -837
l172 -75 120 -181 c822 -1246 1404 -2473 1787 -3772 271 -919 427 -1792 502
-2815 22 -305 26 -1411 5 -1705 -22 -325 -44 -570 -51 -575 -307 -222 -504
-357 -731 -502 -843 -538 -1734 -975 -2675 -1311 -290 -104 -626 -210 -635
-200 -61 66 -382 546 -529 790 -122 204 -336 591 -330 597 2 2 85 36 183 76
354 143 734 324 1037 496 l136 77 -164 123 -164 123 -77 -35 c-1598 -733
-3377 -1006 -5130 -788 -947 117 -1905 389 -2775 788 l-79 36 -162 -122 -163
-123 26 -16 c283 -171 767 -407 1153 -561 l178 -71 -72 -136 c-195 -371 -444
-773 -701 -1131 -49 -69 -91 -127 -93 -129 -2 -2 -135 40 -296 93 -1127 371
-2174 876 -3153 1521 -168 110 -540 368 -592 409 -4 3 -44 566 -53 751 -13
269 -13 1032 0 1285 90 1774 491 3361 1260 4990 288 612 689 1315 1091 1916
l67 100 174 77 c912 401 1881 702 2893 897 110 21 207 38 215 39 10 1 48 -59
107 -171z"/>
<path d="M7990 11779 c-455 -56 -853 -348 -1081 -792 -333 -649 -215 -1464
285 -1962 285 -283 637 -427 1006 -412 362 16 661 154 926 429 213 222 349
489 421 827 25 116 27 145 27 351 0 196 -3 238 -22 329 -74 340 -213 603 -436
826 -204 203 -430 328 -701 386 -106 22 -319 32 -425 18z"/>
<path d="M13290 11780 c-506 -63 -942 -418 -1149 -935 -89 -223 -126 -440
-118 -700 10 -340 97 -619 279 -892 93 -139 275 -324 406 -411 705 -468 1598
-201 1987 593 237 483 243 1052 15 1520 -211 434 -567 719 -1014 810 -97 19
-305 27 -406 15z"/>
</g>
</svg>
